<svg width="16" height="16" viewBox="0 0 16 16" fill="none" xmlns="http://www.w3.org/2000/svg">
<path d="M7.81934 13.6396V16H5.75781C6.66814 15.5036 7.23895 14.6475 7.5791 13.6396H7.81934ZM10.4395 0C13.7193 1.11641e-05 15.3197 1.43984 15.7998 4.09961L13.5264 5.74023H16V12.2598L10.46 16V9.74023H4.87988V11.8799H7.75977C7.71977 12.9798 7.1996 14.12 4.95996 14.1201C2.73996 14.1201 1.89941 12.7399 1.89941 10.4199C1.89943 7.93997 2.71991 6.5 4.87988 6.5C6.53952 6.50011 7.21957 7.25997 7.55957 8.67969L10.2598 8.09961C9.77969 5.43983 8.17928 4 4.89941 4C3.36461 4.00002 2.12794 4.37191 1.19043 5.06348C1.2009 5.05575 1.21113 5.04768 1.22168 5.04004L1.22266 5.03906L6.69531 1.08594H6.69922C7.64038 0.379628 8.88776 1.90333e-05 10.4395 0ZM7.7793 11.8799V11.9199L7.75977 11.8799H7.7793Z" fill="url(#paint0_linear_63_74)"/>
<defs>
<linearGradient id="paint0_linear_63_74" x1="2.25628" y1="3.64824" x2="24.8693" y2="12.3518" gradientUnits="userSpaceOnUse">
<stop offset="0.418269" stop-color="#111111"/>
<stop offset="0.788462" stop-color="#4A6556" stop-opacity="0.752066"/>
<stop offset="1" stop-color="#00FF73" stop-opacity="0.5"/>
</linearGradient>
</defs>
</svg>
