<svg xmlns="http://www.w3.org/2000/svg" style="display: none;">

	<symbol id="icon-linkedin" viewBox="0 0 50 50" fill="currentcolor">
		<path d="M41,4H9C6.24,4,4,6.24,4,9v32c0,2.76,2.24,5,5,5h32c2.76,0,5-2.24,5-5V9C46,6.24,43.76,4,41,4z M17,20v19h-6V20H17z M11,14.47c0-1.4,1.2-2.47,3-2.47s2.93,1.07,3,2.47c0,1.4-1.12,2.53-3,2.53C12.2,17,11,15.87,11,14.47z M39,39h-6c0,0,0-9.26,0-10 c0-2-1-4-3.5-4.04h-0.08C27,24.96,26,27.02,26,29c0,0.91,0,10,0,10h-6V20h6v2.56c0,0,1.93-2.56,5.81-2.56 c3.97,0,7.19,2.73,7.19,8.26V39z"/>
	</symbol>

	<symbol id="icon-calendar" viewBox="0 0 16 16" fill="currentcolor">
		<path d="M14 0a2 2 0 0 1 2 2v12a2 2 0 0 1-2 2H2l-.204-.01A2 2 0 0 1 0 14V2A2 2 0 0 1 1.796.01L2 0h12ZM1 5v9a1 1 0 0 0 1 1h12a1 1 0 0 0 1-1V5H1Z" />
		<rect width="2" height="2" x="3" y="6" rx=".5" />
		<rect width="2" height="2" x="3" y="9" rx=".5" />
		<rect width="2" height="2" x="3" y="12" rx=".5" />
		<rect width="2" height="2" x="7" y="6" rx=".5" />
		<rect width="2" height="2" x="7" y="9" rx=".5" />
		<rect width="2" height="2" x="7" y="12" rx=".5" />
		<rect width="2" height="2" x="11" y="6" rx=".5" />
		<rect width="2" height="2" x="11" y="9" rx=".5" />
		<rect width="2" height="2" x="11" y="12" rx=".5" />
	</symbol>

	<symbol id="icon-tags" viewBox="0 0 16 16" fill="currentcolor">
		<path d="M15.0002 0C15.5524 9.22266e-05 16.0002 0.447772 16.0002 1V6.74902C16.0001 7.01418 15.8947 7.26855 15.7072 7.45605L7.77849 15.3848C7.38802 15.7752 6.75497 15.7751 6.36443 15.3848L0.707202 9.72754C0.316702 9.33701 0.31668 8.70399 0.707202 8.31348L8.72869 0.292969C8.91622 0.105456 9.17052 0 9.43572 0H15.0002ZM12.5002 2C11.6717 2 11.0002 2.67157 11.0002 3.5C11.0002 4.32843 11.6717 5 12.5002 5C13.3285 4.99991 14.0002 4.32837 14.0002 3.5C14.0002 2.67163 13.3285 2.00009 12.5002 2Z"/>
	</symbol>

	<symbol id="icon-arrow" viewBox="0 0 16 16" fill="currentcolor">
		<path d="M9.268 15.07a1 1 0 0 1-1.414 0l-.708-.708a1 1 0 0 1 0-1.414l4.95-4.95-4.95-4.95a1 1 0 0 1 0-1.414l.708-.707a1 1 0 0 1 1.414 0l6.364 6.364a1 1 0 0 1 0 1.414L9.268 15.07Z" />
		<path d="M13.596 9.498H1.04a1 1 0 0 1-1-1v-1a1 1 0 0 1 1-1h12.556v3Z" />
	</symbol>


	<symbol id="icon-sun" viewBox="0 0 512 512" fill="currentcolor">
		<circle cx="256" cy="256" r="96"/>
		<rect x="224" y="4" width="64" height="112" rx="32" ry="32"/>
		<rect x="224" y="396" width="64" height="112" rx="32" ry="32"/>
		<rect x="4" y="224" width="112" height="64" rx="32" ry="32"/>
		<rect x="396" y="224" width="112" height="64" rx="32" ry="32"/>
		<rect x="85.4" y="61.4" width="64" height="112" rx="32" ry="32" transform="translate(-48.6 117.4) rotate(-45)"/>
		<rect x="362.6" y="338.6" width="64" height="112" rx="32" ry="32" transform="translate(-163.4 394.6) rotate(-45)"/>
		<rect x="61.4" y="362.6" width="112" height="64" rx="32" ry="32" transform="translate(-244.6 198.6) rotate(-45)"/>
		<rect x="338.6" y="85.4" width="112" height="64" rx="32" ry="32" transform="translate(32.6 313.4) rotate(-45)"/>
	</symbol>

	<symbol id="icon-moon" viewBox="0 0 512 512" fill="currentcolor">
		<path d="M392.3,391.3c-79.8-18.6-142.3-81.3-160.3-161.2-16.5-73,3.7-141.7,45.6-191.5,11.6-13.7.4-34.5-17.4-32.5-.1,0-.2,0-.3,0C139.8,21,45.9,120.7,40.3,243.4c-6.7,144.8,111.6,265.9,256.6,262.5,65.5-1.5,124.9-28.2,168.7-70.7,14.4-14,4.1-38.3-16-37.9-18.6.4-37.7-1.5-57.2-6Z"/>
	</symbol>

</svg>