<svg xmlns="http://www.w3.org/2000/svg" style="display: none;">

	<symbol id="icon-calendar" viewBox="0 0 16 16" fill="currentcolor">
		<path d="M14 0a2 2 0 0 1 2 2v12a2 2 0 0 1-2 2H2l-.204-.01A2 2 0 0 1 0 14V2A2 2 0 0 1 1.796.01L2 0h12ZM1 5v9a1 1 0 0 0 1 1h12a1 1 0 0 0 1-1V5H1Z" />
		<rect width="2" height="2" x="3" y="6" rx=".5" />
		<rect width="2" height="2" x="3" y="9" rx=".5" />
		<rect width="2" height="2" x="3" y="12" rx=".5" />
		<rect width="2" height="2" x="7" y="6" rx=".5" />
		<rect width="2" height="2" x="7" y="9" rx=".5" />
		<rect width="2" height="2" x="7" y="12" rx=".5" />
		<rect width="2" height="2" x="11" y="6" rx=".5" />
		<rect width="2" height="2" x="11" y="9" rx=".5" />
		<rect width="2" height="2" x="11" y="12" rx=".5" />
	</symbol>

	<symbol id="icon-language" viewBox="0 0 16 16" fill="currentcolor">
		<path fill-rule="evenodd" clip-rule="evenodd" d="M8 0C12.4183 0 16 3.58172 16 8C16 12.4183 12.4183 16 8 16C3.58172 16 0 12.4183 0 8C0 3.58172 3.58172 0 8 0ZM11.3535 12.6475C10.9531 13.4087 10.4561 14.1103 9.88184 14.7402C10.9025 14.456 11.8281 13.9466 12.6035 13.2686C12.2054 13.0311 11.7883 12.8222 11.3535 12.6475ZM4.64551 12.6475C4.21053 12.8223 3.79283 13.0309 3.39453 13.2686C4.16898 13.946 5.09404 14.4546 6.11328 14.7393C5.53994 14.11 5.04531 13.4076 4.64551 12.6475ZM7.5 12.0146C6.84754 12.0509 6.21376 12.1567 5.60547 12.3242C6.09823 13.2219 6.74241 14.0229 7.5 14.7002V12.0146ZM8.5 14.6992C9.25716 14.0221 9.90093 13.2216 10.3936 12.3242C9.78554 12.1568 9.15212 12.051 8.5 12.0146V14.6992ZM13.3262 12.5381C14.2603 11.4374 14.8725 10.0298 14.9805 8.5H12.4873C12.4306 9.6406 12.1816 10.7304 11.7744 11.7393C12.3173 11.9607 12.836 12.2289 13.3262 12.5381ZM1.01953 8.5C1.12795 10.0358 1.73183 11.4341 2.67188 12.5371C3.16214 12.2279 3.68169 11.9608 4.22461 11.7393C3.81753 10.7304 3.56921 9.64055 3.5127 8.5H1.01953ZM4.51465 8.5C4.57097 9.52446 4.79828 10.5031 5.16895 11.4082C5.91363 11.1888 6.69419 11.0538 7.5 11.0137V8.5H4.51465ZM8.5 11.0137C9.30546 11.0538 10.0857 11.1889 10.8301 11.4082C11.2008 10.503 11.4288 9.52451 11.4854 8.5H8.5V11.0137ZM5.16895 4.59082C4.79808 5.49616 4.57092 6.47519 4.51465 7.5H7.5V4.98535C6.69418 4.94505 5.91369 4.81031 5.16895 4.59082ZM13.3252 3.45996C12.8351 3.76902 12.3172 4.03829 11.7744 4.25977C12.1818 5.26891 12.4307 6.35905 12.4873 7.5H14.9805C14.8719 5.96274 14.2668 4.56342 13.3252 3.45996ZM10.8301 4.59082C10.0856 4.81015 9.30547 4.945 8.5 4.98535V7.5H11.4854C11.4289 6.47514 11.201 5.49625 10.8301 4.59082ZM2.67383 3.45996C1.73248 4.56334 1.12804 5.96296 1.01953 7.5H3.5127C3.56916 6.35911 3.81733 5.26882 4.22461 4.25977C3.68187 4.03825 3.16394 3.76904 2.67383 3.45996ZM7.5 1.2959C6.74198 1.97368 6.09858 2.77667 5.60547 3.6748C6.21381 3.84235 6.84754 3.94787 7.5 3.98438V1.2959ZM8.5 3.98438C9.15212 3.94782 9.78549 3.84221 10.3936 3.6748C9.90058 2.77702 9.25759 1.97447 8.5 1.29688V3.98438ZM6.11133 1.26074C5.09371 1.54519 4.17005 2.05331 3.39648 2.72949C3.79448 2.96685 4.21089 3.17683 4.64551 3.35156C5.04503 2.59211 5.53859 1.88969 6.11133 1.26074ZM9.88574 1.25977C10.459 1.88909 10.9536 2.59146 11.3535 3.35156C11.7881 3.17691 12.2037 2.96579 12.6016 2.72852C11.8276 2.05237 10.9038 1.54386 9.88574 1.25977Z"/>
	</symbol>

	<symbol id="icon-linkedin" viewBox="0 0 42 42" fill="currentcolor">
		<path d="M37 0H5C2.24 0 0 2.24 0 5V37C0 39.76 2.24 42 5 42H37C39.76 42 42 39.76 42 37V5C42 2.24 39.76 0 37 0ZM13 16V35H7V16H13ZM7 10.47C7 9.07 8.2 8 10 8C11.8 8 12.93 9.07 13 10.47C13 11.87 11.88 13 10 13C8.2 13 7 11.87 7 10.47ZM35 35H29C29 35 29 25.74 29 25C29 23 28 21 25.5 20.96H25.42C23 20.96 22 23.02 22 25C22 25.91 22 35 22 35H16V16H22V18.56C22 18.56 23.93 16 27.81 16C31.78 16 35 18.73 35 24.26V35Z"/>
	</symbol>

	<symbol id="icon-github" viewBox="0 0 16 16" fill="currentcolor">
		<path fill-rule="evenodd" clip-rule="evenodd" stroke-linejoin="round" stroke-miterlimit="1.414" d="M8 0C3.58 0 0 3.582 0 8c0 3.535 2.292 6.533 5.47 7.59.4.075.547-.172.547-.385 0-.19-.007-.693-.01-1.36-2.226.483-2.695-1.073-2.695-1.073-.364-.924-.89-1.17-.89-1.17-.725-.496.056-.486.056-.486.803.056 1.225.824 1.225.824.714 1.223 1.873.87 2.33.665.072-.517.278-.87.507-1.07-1.777-.2-3.644-.888-3.644-3.953 0-.873.31-1.587.823-2.147-.09-.202-.36-1.015.07-2.117 0 0 .67-.215 2.2.82.64-.178 1.32-.266 2-.27.68.004 1.36.092 2 .27 1.52-1.035 2.19-.82 2.19-.82.43 1.102.16 1.915.08 2.117.51.56.82 1.274.82 2.147 0 3.073-1.87 3.75-3.65 3.947.28.24.54.73.54 1.48 0 1.07-.01 1.93-.01 2.19 0 .21.14.46.55.38C13.71 14.53 16 11.53 16 8c0-4.418-3.582-8-8-8"/>
	</symbol>

	<symbol id="icon-itchio" viewBox="0 0 54 49" fill="currentcolor">
		<path d="M7.04017 0.300421C4.68472 1.69899 0.0440148 7.03028 0 8.42841V10.7427C0 13.6763 2.74212 16.2547 5.23182 16.2547C8.2213 16.2547 10.7121 13.7771 10.7123 10.8365C10.7123 13.7771 13.1177 16.2547 16.1074 16.2547C19.0974 16.2547 21.4255 13.7771 21.4255 10.8365C21.4255 13.7771 23.9832 16.2547 26.9729 16.2547H27.0271C30.017 16.2547 32.5747 13.7771 32.5747 10.8365C32.5747 13.7771 34.9031 16.2547 37.8926 16.2547C40.8823 16.2547 43.2877 13.7771 43.2877 10.8365C43.2877 13.7771 45.7789 16.2547 48.7682 16.2547C51.2579 16.2547 54 13.6767 54 10.7427V8.42841C53.956 7.03006 49.3153 1.69855 46.9603 0.300421C39.6393 0.0433742 34.5639 -0.00108072 26.9998 1.96493e-05C19.4358 0.000679871 9.12361 0.11886 7.03973 0.300421H7.04017ZM21.3877 14.8731C21.1018 15.3714 20.7477 15.8273 20.3357 16.2276C19.2072 17.3311 17.6603 18.0151 15.9549 18.0151C14.3139 18.0166 12.7377 17.3745 11.5649 16.2267C11.156 15.8262 10.8452 15.3979 10.5607 14.8992L10.5594 14.9001C10.275 15.3997 9.8789 15.8277 9.46912 16.2287C8.29584 17.3757 6.71984 18.0172 5.07909 18.0157C4.87354 18.0157 4.65963 17.9589 4.48665 17.8995C4.24633 20.4022 4.14487 22.794 4.109 24.5378L4.10856 24.5477C4.10416 25.4333 4.09976 26.1615 4.09536 27.1732C4.14157 32.4242 3.57532 44.1924 6.41054 47.084C10.8041 48.1084 18.8887 48.575 26.9996 48.5778H27.0009C35.1115 48.575 43.1961 48.1084 47.5897 47.084C50.4249 44.1922 49.8586 32.424 49.9049 27.173C49.9 26.1615 49.8961 25.4333 49.8917 24.5475L49.891 24.5376C49.8553 22.7933 49.7539 20.4018 49.5136 17.8991C49.3406 17.9585 49.1269 18.0153 48.9211 18.0153C47.2804 18.0167 45.7044 17.3752 44.5311 16.2283C44.1213 15.8273 43.7252 15.3995 43.4406 14.8997L43.4393 14.8988C43.1545 15.3975 42.844 15.826 42.4351 16.2263C41.2623 17.374 39.6862 18.016 38.0453 18.0144C36.3402 18.0144 34.793 17.33 33.6645 16.2267C33.2525 15.8264 32.8984 15.3705 32.6125 14.8722C32.3298 15.3699 31.979 15.8258 31.5703 16.2267C30.3972 17.3743 28.8209 18.0162 27.1798 18.0146C27.1204 18.0146 27.061 18.012 27.0015 18.0102H27C26.9406 18.012 26.8812 18.0146 26.8211 18.0146C25.18 18.0163 23.6038 17.3744 22.4306 16.227C22.0219 15.8261 21.6711 15.3702 21.3883 14.8724L21.3877 14.8731ZM16.8792 20.7028L16.8788 20.705H16.8821C18.6676 20.7088 20.2536 20.705 22.2189 22.8499C23.7656 22.6877 25.3818 22.6067 26.9993 22.6091H27.0007C28.6182 22.6069 30.2344 22.6877 31.7813 22.8499C33.7466 20.7048 35.3327 20.7085 37.1181 20.705H37.1212L37.1208 20.7028C37.9643 20.7028 41.3387 20.7028 43.69 27.3066L46.2155 36.3659C48.0871 43.1055 45.6163 43.2703 42.5344 43.2763C37.9639 43.1061 35.4332 39.787 35.4332 36.4683C32.9033 36.8829 29.9519 37.0902 27.0004 37.0904H26.9991C24.0475 37.0904 21.0961 36.8829 18.5663 36.4683C18.5663 39.787 16.0355 43.1061 11.4652 43.2763C8.38328 43.2703 5.91273 43.1057 7.78424 36.3659L10.3105 27.3068C12.6617 20.703 16.0361 20.703 16.8797 20.703L16.8792 20.7028ZM26.9993 25.8926V25.8939C26.9949 25.8983 22.1879 30.313 21.3236 31.8832L24.4716 31.7571V34.5023C24.4716 34.6309 25.7348 34.5785 26.9993 34.5199H27.0007C28.2648 34.5785 29.5282 34.6309 29.5282 34.5023V31.7571L32.6761 31.8832C31.8117 30.313 27.0004 25.8939 27.0004 25.8939V25.8926L26.9998 25.893L26.9993 25.8926Z"/>
	</symbol>

	<symbol id="icon-rss" viewBox="0 0 16 16" fill="currentcolor">
		<path fill-rule="evenodd" clip-rule="evenodd" stroke-linejoin="round" stroke-miterlimit="1.414" d="M12.8 16C12.8 8.978 7.022 3.2 0 3.2V0c8.777 0 16 7.223 16 16h-3.2zM2.194 11.61c1.21 0 2.195.985 2.195 2.196 0 1.21-.99 2.194-2.2 2.194C.98 16 0 15.017 0 13.806c0-1.21.983-2.195 2.194-2.195zM10.606 16h-3.11c0-4.113-3.383-7.497-7.496-7.497v-3.11c5.818 0 10.606 4.79 10.606 10.607z"/>
	</symbol>

	<symbol id="icon-tags" viewBox="0 0 16 16" fill="currentcolor">
		<path d="M15.0002 0C15.5524 9.22266e-05 16.0002 0.447772 16.0002 1V6.74902C16.0001 7.01418 15.8947 7.26855 15.7072 7.45605L7.77849 15.3848C7.38802 15.7752 6.75497 15.7751 6.36443 15.3848L0.707202 9.72754C0.316702 9.33701 0.31668 8.70399 0.707202 8.31348L8.72869 0.292969C8.91622 0.105456 9.17052 0 9.43572 0H15.0002ZM12.5002 2C11.6717 2 11.0002 2.67157 11.0002 3.5C11.0002 4.32843 11.6717 5 12.5002 5C13.3285 4.99991 14.0002 4.32837 14.0002 3.5C14.0002 2.67163 13.3285 2.00009 12.5002 2Z"/>
	</symbol>

	<symbol id="icon-sun" viewBox="0 0 512 512" fill="currentcolor">
		<circle cx="256" cy="256" r="96"/>
		<rect x="224" y="4" width="64" height="112" rx="32" ry="32"/>
		<rect x="224" y="396" width="64" height="112" rx="32" ry="32"/>
		<rect x="4" y="224" width="112" height="64" rx="32" ry="32"/>
		<rect x="396" y="224" width="112" height="64" rx="32" ry="32"/>
		<rect x="85.4" y="61.4" width="64" height="112" rx="32" ry="32" transform="translate(-48.6 117.4) rotate(-45)"/>
		<rect x="362.6" y="338.6" width="64" height="112" rx="32" ry="32" transform="translate(-163.4 394.6) rotate(-45)"/>
		<rect x="61.4" y="362.6" width="112" height="64" rx="32" ry="32" transform="translate(-244.6 198.6) rotate(-45)"/>
		<rect x="338.6" y="85.4" width="112" height="64" rx="32" ry="32" transform="translate(32.6 313.4) rotate(-45)"/>
	</symbol>

	<symbol id="icon-moon" viewBox="0 0 512 512" fill="currentcolor">
		<path d="M392.3,391.3c-79.8-18.6-142.3-81.3-160.3-161.2-16.5-73,3.7-141.7,45.6-191.5,11.6-13.7.4-34.5-17.4-32.5-.1,0-.2,0-.3,0C139.8,21,45.9,120.7,40.3,243.4c-6.7,144.8,111.6,265.9,256.6,262.5,65.5-1.5,124.9-28.2,168.7-70.7,14.4-14,4.1-38.3-16-37.9-18.6.4-37.7-1.5-57.2-6Z"/>
	</symbol>

	<symbol id="icon-logo" viewBox="0 0 16 16" fill="currentcolor">
		<path d="M7.81934 13.6396V16H5.75781C6.66814 15.5036 7.23895 14.6475 7.5791 13.6396H7.81934ZM10.4395 0C13.7193 1.11641e-05 15.3197 1.43984 15.7998 4.09961L13.5264 5.74023H16V12.2598L10.46 16V9.74023H4.87988V11.8799H7.75977C7.71977 12.9798 7.1996 14.12 4.95996 14.1201C2.73996 14.1201 1.89941 12.7399 1.89941 10.4199C1.89943 7.93997 2.71991 6.5 4.87988 6.5C6.53952 6.50011 7.21957 7.25997 7.55957 8.67969L10.2598 8.09961C9.77969 5.43983 8.17928 4 4.89941 4C3.36461 4.00002 2.12794 4.37191 1.19043 5.06348C1.2009 5.05575 1.21113 5.04768 1.22168 5.04004L1.22266 5.03906L6.69531 1.08594H6.69922C7.64038 0.379628 8.88776 1.90333e-05 10.4395 0ZM7.7793 11.8799V11.9199L7.75977 11.8799H7.7793Z"/>
	</symbol>

	<symbol id="left-corner" viewBox="0 0 24 24" fill="currentcolor">
		<path d="M24 24H0C13.2548 24 24 13.2548 24 0V24Z"/>
	</symbol>

	<symbol id="right-corner" viewBox="0 0 24 24" fill="currentcolor">
		<path d="M0 0C0 13.2548 10.7452 24 24 24H0V0Z"/>
	</symbol>
</svg>